<svg xmlns="http://www.w3.org/2000/svg" viewBox="0 0 100 100">
  <defs>
    <linearGradient id="g9" x1="0%" y1="0%" x2="100%" y2="100%">
      <stop offset="0%" stop-color="#F97316" />
      <stop offset="100%" stop-color="#DC2626" />
    </linearGradient>
  </defs>
  <circle cx="50" cy="50" r="50" fill="url(#g9)" />
  <path d="M26 40 C 26 40, 20 60, 24 85 C 26 85, 34 85, 34 70 Z" fill="#B45309" />
  <path d="M74 40 C 74 40, 80 60, 76 85 C 74 85, 66 85, 66 70 Z" fill="#B45309" />
  <path d="M22 90 C 22 72, 78 72, 78 90 Z" fill="#10B981" />
  <rect x="46" y="52" width="8" height="12" rx="2" fill="#FED7AA" />
  <circle cx="50" cy="38" r="16" fill="#FED7AA" />
  <path d="M34 34 C 34 20, 66 20, 66 34 C 66 38, 63 42, 63 42 L 60 34 L 40 34 L 37 42 Z" fill="#B45309" />
  <path d="M47 45 Q 50 48 53 45" fill="none" stroke="#B45309" stroke-width="1.5" stroke-linecap="round" />
</svg>
