<svg xmlns="http://www.w3.org/2000/svg" viewBox="0 0 100 100">
  <defs>
    <linearGradient id="g8" x1="0%" y1="0%" x2="100%" y2="100%">
      <stop offset="0%" stop-color="#64748B" />
      <stop offset="100%" stop-color="#3F3F46" />
    </linearGradient>
  </defs>
  <circle cx="50" cy="50" r="50" fill="url(#g8)" />
  <path d="M22 90 C 22 72, 78 72, 78 90 Z" fill="#2563EB" />
  <rect x="46" y="52" width="8" height="12" rx="2" fill="#FDBA74" />
  <circle cx="50" cy="38" r="16" fill="#FDBA74" />
  <path d="M34 38 C 34 32, 36 30, 36 30 L 64 30 C 64 30, 66 32, 66 38 Z" fill="#1E293B" />
  <path d="M32 30 C 32 20, 68 20, 68 30 Z" fill="#F59E0B" />
  <path d="M30 30 C 30 30, 50 26, 70 30 C 73 30, 73 33, 70 33 L 30 33 Z" fill="#D97706" />
  <path d="M47 45 Q 50 48 53 45" fill="none" stroke="#1E293B" stroke-width="1.5" stroke-linecap="round" />
</svg>
